<mxfile host="app.diagrams.net" modified="2024-06-02T16:28:39.318Z" agent="Mozilla/5.0 (X11; Linux x86_64) AppleWebKit/537.36 (KHTML, like Gecko) Chrome/123.0.0.0 Safari/537.36" version="24.1.0" etag="436ea-FxJDnWzCVL8595" type="github">
  <diagram name="PÃ¡gina-1" id="y7k8YyZjDKotEbwWvCkN">
    <mxGraphModel>
      <root>
        <mxCell id="0" />
        <mxCell id="1" parent="0" />
      </root>
    </mxGraphModel>
  </diagram>
</mxfile>
